<mxfile host="app.diagrams.net" modified="2022-01-26T13:30:29.252Z" agent="5.0 (Macintosh; Intel Mac OS X 10_15_7) AppleWebKit/537.36 (KHTML, like Gecko) Chrome/97.0.4692.71 Safari/537.36" etag="VWwO0mWZhvOqNe7koRzv" version="16.4.6" type="github">
  <diagram id="g_QH4wGa0FEvz_T-4OMw" name="Page-1">
    <mxGraphModel dx="1426" dy="700" grid="1" gridSize="10" guides="1" tooltips="1" connect="1" arrows="1" fold="1" page="1" pageScale="1" pageWidth="1169" pageHeight="827" math="0" shadow="0">
      <root>
        <mxCell id="0" />
        <mxCell id="1" parent="0" />
        <mxCell id="H_D4z-gt941NdYhwixZX-2" value="Disaster Recovery" style="ellipse;whiteSpace=wrap;html=1;fillColor=#FFFFFF;strokeColor=#000000;shadow=1;" vertex="1" parent="1">
          <mxGeometry x="335" y="60" width="110" height="80" as="geometry" />
        </mxCell>
        <mxCell id="H_D4z-gt941NdYhwixZX-3" value="Business Continuity&lt;br&gt;Plan (BCP)" style="ellipse;whiteSpace=wrap;html=1;fillColor=#FFFFFF;strokeColor=#000000;shadow=1;" vertex="1" parent="1">
          <mxGeometry x="480" y="30" width="120" height="80" as="geometry" />
        </mxCell>
        <mxCell id="H_D4z-gt941NdYhwixZX-4" value="Complicance - BCP" style="ellipse;whiteSpace=wrap;html=1;strokeColor=#000000;fillColor=#FFFFFF;shadow=1;" vertex="1" parent="1">
          <mxGeometry x="630" y="30" width="120" height="80" as="geometry" />
        </mxCell>
        <mxCell id="H_D4z-gt941NdYhwixZX-5" value="IT Disaster Recovery" style="ellipse;whiteSpace=wrap;html=1;fillColor=#FFFFFF;strokeColor=#000000;shadow=1;" vertex="1" parent="1">
          <mxGeometry x="480" y="120" width="120" height="80" as="geometry" />
        </mxCell>
        <mxCell id="H_D4z-gt941NdYhwixZX-6" value="Chaos Engineering&lt;span style=&quot;color: rgba(0 , 0 , 0 , 0) ; font-family: monospace ; font-size: 0px&quot;&gt;%3CmxGraphModel%3E%3Croot%3E%3CmxCell%20id%3D%220%22%2F%3E%3CmxCell%20id%3D%221%22%20parent%3D%220%22%2F%3E%3CmxCell%20id%3D%222%22%20value%3D%22Disaster%20Recovery%22%20style%3D%22ellipse%3BwhiteSpace%3Dwrap%3Bhtml%3D1%3B%22%20vertex%3D%221%22%20parent%3D%221%22%3E%3CmxGeometry%20x%3D%22335%22%20y%3D%2260%22%20width%3D%22110%22%20height%3D%2280%22%20as%3D%22geometry%22%2F%3E%3C%2FmxCell%3E%3C%2Froot%3E%3C%2FmxGraphModel%3E&lt;/span&gt;" style="ellipse;whiteSpace=wrap;html=1;strokeColor=#000000;fillColor=#FFFFFF;shadow=1;" vertex="1" parent="1">
          <mxGeometry x="175" y="180" width="110" height="80" as="geometry" />
        </mxCell>
        <mxCell id="H_D4z-gt941NdYhwixZX-7" value="Performance Test" style="ellipse;whiteSpace=wrap;html=1;strokeColor=#000000;fillColor=#FFFFFF;shadow=1;" vertex="1" parent="1">
          <mxGeometry x="590" y="160" width="110" height="80" as="geometry" />
        </mxCell>
        <mxCell id="H_D4z-gt941NdYhwixZX-8" value="Failure Injections&lt;span style=&quot;color: rgba(0 , 0 , 0 , 0) ; font-family: monospace ; font-size: 0px&quot;&gt;%3CmxGraphModel%3E%3Croot%3E%3CmxCell%20id%3D%220%22%2F%3E%3CmxCell%20id%3D%221%22%20parent%3D%220%22%2F%3E%3CmxCell%20id%3D%222%22%20value%3D%22Chaos%20Engineering%26lt%3Bspan%20style%3D%26quot%3Bcolor%3A%20rgba(0%20%2C%200%20%2C%200%20%2C%200)%20%3B%20font-family%3A%20monospace%20%3B%20font-size%3A%200px%26quot%3B%26gt%3B%253CmxGraphModel%253E%253Croot%253E%253CmxCell%2520id%253D%25220%2522%252F%253E%253CmxCell%2520id%253D%25221%2522%2520parent%253D%25220%2522%252F%253E%253CmxCell%2520id%253D%25222%2522%2520value%253D%2522Disaster%2520Recovery%2522%2520style%253D%2522ellipse%253BwhiteSpace%253Dwrap%253Bhtml%253D1%253B%2522%2520vertex%253D%25221%2522%2520parent%253D%25221%2522%253E%253CmxGeometry%2520x%253D%2522335%2522%2520y%253D%252260%2522%2520width%253D%2522110%2522%2520height%253D%252280%2522%2520as%253D%2522geometry%2522%252F%253E%253C%252FmxCell%253E%253C%252Froot%253E%253C%252FmxGraphModel%253E%26lt%3B%2Fspan%26gt%3B%22%20style%3D%22ellipse%3BwhiteSpace%3Dwrap%3Bhtml%3D1%3B%22%20vertex%3D%221%22%20parent%3D%221%22%3E%3CmxGeometry%20x%3D%22590%22%20y%3D%22180%22%20width%3D%22110%22%20height%3D%2280%22%20as%3D%22geometry%22%2F%3E%3C%2FmxCell%3E%3C%2Froot%3E%3C%2FmxGraphModel%3E&lt;/span&gt;" style="ellipse;whiteSpace=wrap;html=1;strokeColor=#000000;fillColor=#FFFFFF;shadow=1;" vertex="1" parent="1">
          <mxGeometry x="590" y="250" width="110" height="80" as="geometry" />
        </mxCell>
        <mxCell id="H_D4z-gt941NdYhwixZX-9" value="Quantify/Postmorems&lt;br&gt;" style="ellipse;whiteSpace=wrap;html=1;strokeColor=#000000;fillColor=#FFFFFF;shadow=1;" vertex="1" parent="1">
          <mxGeometry x="660" y="370" width="120" height="90" as="geometry" />
        </mxCell>
        <mxCell id="H_D4z-gt941NdYhwixZX-10" value="SRE" style="ellipse;whiteSpace=wrap;html=1;fillColor=#dae8fc;strokeColor=#6c8ebf;shadow=1;" vertex="1" parent="1">
          <mxGeometry x="150" y="310" width="120" height="90" as="geometry" />
        </mxCell>
        <mxCell id="H_D4z-gt941NdYhwixZX-11" value="Technical and FunctionSupport" style="ellipse;whiteSpace=wrap;html=1;fillColor=#FFFFFF;shadow=1;strokeColor=#000000;" vertex="1" parent="1">
          <mxGeometry x="270" y="240" width="110" height="90" as="geometry" />
        </mxCell>
        <mxCell id="H_D4z-gt941NdYhwixZX-12" value="On Call Policies" style="ellipse;whiteSpace=wrap;html=1;fillColor=#FFFFFF;strokeColor=#000000;shadow=1;" vertex="1" parent="1">
          <mxGeometry x="405" y="240" width="110" height="90" as="geometry" />
        </mxCell>
        <mxCell id="H_D4z-gt941NdYhwixZX-13" value="Alerts" style="ellipse;whiteSpace=wrap;html=1;fillColor=#FFFFFF;shadow=1;strokeColor=#000000;" vertex="1" parent="1">
          <mxGeometry x="480" y="320" width="110" height="90" as="geometry" />
        </mxCell>
        <mxCell id="H_D4z-gt941NdYhwixZX-14" value="Logging" style="ellipse;whiteSpace=wrap;html=1;fillColor=#FFFFFF;shadow=1;strokeColor=#000000;" vertex="1" parent="1">
          <mxGeometry x="350" y="330" width="110" height="90" as="geometry" />
        </mxCell>
        <mxCell id="H_D4z-gt941NdYhwixZX-15" value="Monitoring" style="ellipse;whiteSpace=wrap;html=1;fillColor=#FFFFFF;shadow=1;strokeColor=#000000;" vertex="1" parent="1">
          <mxGeometry x="255" y="400" width="110" height="90" as="geometry" />
        </mxCell>
        <mxCell id="H_D4z-gt941NdYhwixZX-16" value="DevOps" style="ellipse;whiteSpace=wrap;html=1;fillColor=#d5e8d4;shadow=1;strokeColor=#82b366;" vertex="1" parent="1">
          <mxGeometry x="20" y="370" width="120" height="90" as="geometry" />
        </mxCell>
        <mxCell id="H_D4z-gt941NdYhwixZX-17" value="Dev- SEC-Ops" style="ellipse;whiteSpace=wrap;html=1;fillColor=#dae8fc;strokeColor=#6c8ebf;shadow=1;" vertex="1" parent="1">
          <mxGeometry x="20" y="480" width="120" height="90" as="geometry" />
        </mxCell>
        <mxCell id="H_D4z-gt941NdYhwixZX-18" value="Tooling" style="ellipse;whiteSpace=wrap;html=1;fillColor=#FFFFFF;shadow=1;strokeColor=#000000;" vertex="1" parent="1">
          <mxGeometry x="20" y="600" width="120" height="90" as="geometry" />
        </mxCell>
        <mxCell id="H_D4z-gt941NdYhwixZX-19" value="Security Tech Debts" style="ellipse;whiteSpace=wrap;html=1;fillColor=#FFFFFF;strokeColor=#000000;shadow=1;" vertex="1" parent="1">
          <mxGeometry x="20" y="720" width="120" height="90" as="geometry" />
        </mxCell>
        <mxCell id="H_D4z-gt941NdYhwixZX-20" value="Engineering&amp;nbsp;" style="ellipse;whiteSpace=wrap;html=1;fillColor=#dae8fc;strokeColor=#6c8ebf;shadow=1;" vertex="1" parent="1">
          <mxGeometry x="160" y="490" width="120" height="90" as="geometry" />
        </mxCell>
        <mxCell id="H_D4z-gt941NdYhwixZX-21" value="Framework&lt;br&gt;Standardization" style="ellipse;whiteSpace=wrap;html=1;strokeColor=#000000;fillColor=#FFFFFF;shadow=1;" vertex="1" parent="1">
          <mxGeometry x="330" y="480" width="120" height="90" as="geometry" />
        </mxCell>
        <mxCell id="H_D4z-gt941NdYhwixZX-22" value="Testing Frameworks" style="ellipse;whiteSpace=wrap;html=1;fillColor=#FFFFFF;strokeColor=#000000;shadow=1;" vertex="1" parent="1">
          <mxGeometry x="280" y="570" width="120" height="90" as="geometry" />
        </mxCell>
        <mxCell id="H_D4z-gt941NdYhwixZX-23" value="" style="ellipse;whiteSpace=wrap;html=1;" vertex="1" parent="1">
          <mxGeometry x="470" y="480" width="340" height="290" as="geometry" />
        </mxCell>
        <mxCell id="H_D4z-gt941NdYhwixZX-24" value="Java Micro Services&lt;br&gt;(Architectypes)" style="ellipse;whiteSpace=wrap;html=1;strokeColor=#000000;fillColor=#FFFFFF;shadow=1;" vertex="1" parent="1">
          <mxGeometry x="580" y="500" width="115" height="80" as="geometry" />
        </mxCell>
        <mxCell id="H_D4z-gt941NdYhwixZX-25" value="Java KStreams&lt;br&gt;(Architectypes" style="ellipse;whiteSpace=wrap;html=1;strokeColor=#000000;fillColor=#FFFFFF;shadow=1;" vertex="1" parent="1">
          <mxGeometry x="485" y="560" width="115" height="80" as="geometry" />
        </mxCell>
        <mxCell id="H_D4z-gt941NdYhwixZX-26" value="Service Mesh&lt;br&gt;(ReFactoring)" style="ellipse;whiteSpace=wrap;html=1;strokeColor=#000000;fillColor=#FFFFFF;shadow=1;" vertex="1" parent="1">
          <mxGeometry x="665" y="570" width="115" height="80" as="geometry" />
        </mxCell>
        <mxCell id="H_D4z-gt941NdYhwixZX-27" value="Front End&amp;nbsp;&lt;br&gt;(Amplify)&amp;nbsp;" style="ellipse;whiteSpace=wrap;html=1;strokeColor=#000000;fillColor=#FFFFFF;shadow=1;" vertex="1" parent="1">
          <mxGeometry x="510" y="650" width="115" height="80" as="geometry" />
        </mxCell>
        <mxCell id="H_D4z-gt941NdYhwixZX-28" value="Mobile&amp;nbsp;&lt;br&gt;(Hybrid)" style="ellipse;whiteSpace=wrap;html=1;strokeColor=#000000;fillColor=#FFFFFF;shadow=1;" vertex="1" parent="1">
          <mxGeometry x="640" y="660" width="115" height="80" as="geometry" />
        </mxCell>
        <mxCell id="H_D4z-gt941NdYhwixZX-29" value="Global Testing" style="ellipse;whiteSpace=wrap;html=1;strokeColor=#000000;fillColor=#FFFFFF;shadow=1;" vertex="1" parent="1">
          <mxGeometry x="585" y="780" width="115" height="80" as="geometry" />
        </mxCell>
        <mxCell id="H_D4z-gt941NdYhwixZX-30" value="Device Farm&lt;span style=&quot;color: rgba(0 , 0 , 0 , 0) ; font-family: monospace ; font-size: 0px&quot;&gt;%3CmxGraphModel%3E%3Croot%3E%3CmxCell%20id%3D%220%22%2F%3E%3CmxCell%20id%3D%221%22%20parent%3D%220%22%2F%3E%3CmxCell%20id%3D%222%22%20value%3D%22Global%20Testing%22%20style%3D%22ellipse%3BwhiteSpace%3Dwrap%3Bhtml%3D1%3B%22%20vertex%3D%221%22%20parent%3D%221%22%3E%3CmxGeometry%20x%3D%22585%22%20y%3D%22780%22%20width%3D%22115%22%20height%3D%2280%22%20as%3D%22geometry%22%2F%3E%3C%2FmxCell%3E%3C%2Froot%3E%3C%2FmxGraphModel%3E&lt;/span&gt;" style="ellipse;whiteSpace=wrap;html=1;strokeColor=#000000;fillColor=#FFFFFF;shadow=1;" vertex="1" parent="1">
          <mxGeometry x="665" y="870" width="115" height="80" as="geometry" />
        </mxCell>
        <mxCell id="H_D4z-gt941NdYhwixZX-31" value="Big Data" style="ellipse;whiteSpace=wrap;html=1;fillColor=#FFFFFF;shadow=1;strokeColor=#000000;" vertex="1" parent="1">
          <mxGeometry x="170" y="740" width="115" height="80" as="geometry" />
        </mxCell>
        <mxCell id="H_D4z-gt941NdYhwixZX-32" value="AWS&lt;br&gt;Well Architected" style="ellipse;whiteSpace=wrap;html=1;strokeColor=#000000;fillColor=#FFFFFF;shadow=1;" vertex="1" parent="1">
          <mxGeometry x="330" y="700" width="115" height="80" as="geometry" />
        </mxCell>
        <mxCell id="H_D4z-gt941NdYhwixZX-33" value="Streaming" style="ellipse;whiteSpace=wrap;html=1;fillColor=#FFFFFF;shadow=1;strokeColor=#000000;" vertex="1" parent="1">
          <mxGeometry x="290" y="810" width="115" height="80" as="geometry" />
        </mxCell>
        <mxCell id="H_D4z-gt941NdYhwixZX-34" value="Machine Learning&amp;nbsp;&lt;br&gt;Biz &amp;amp;Tech&amp;nbsp;" style="ellipse;whiteSpace=wrap;html=1;strokeColor=#000000;fillColor=#FFFFFF;shadow=1;" vertex="1" parent="1">
          <mxGeometry x="172.5" y="840" width="115" height="80" as="geometry" />
        </mxCell>
        <mxCell id="H_D4z-gt941NdYhwixZX-35" value="Data Ingestion&lt;br&gt;" style="ellipse;whiteSpace=wrap;html=1;fillColor=#FFFFFF;shadow=1;strokeColor=#000000;" vertex="1" parent="1">
          <mxGeometry x="30" y="860" width="115" height="80" as="geometry" />
        </mxCell>
        <mxCell id="H_D4z-gt941NdYhwixZX-36" value="Warehousing&amp;nbsp;" style="ellipse;whiteSpace=wrap;html=1;fillColor=#FFFFFF;strokeColor=#000000;shadow=1;" vertex="1" parent="1">
          <mxGeometry x="10" y="980" width="100" height="70" as="geometry" />
        </mxCell>
        <mxCell id="H_D4z-gt941NdYhwixZX-37" value="Reconcilation" style="ellipse;whiteSpace=wrap;html=1;fillColor=#FFFFFF;strokeColor=#000000;shadow=1;" vertex="1" parent="1">
          <mxGeometry x="130" y="970" width="100" height="70" as="geometry" />
        </mxCell>
        <mxCell id="H_D4z-gt941NdYhwixZX-38" value="Process Definitions&lt;br&gt;&lt;br&gt;&lt;br&gt;&lt;br&gt;&lt;br&gt;&lt;br&gt;&lt;br&gt;&lt;br&gt;&lt;br&gt;&lt;br&gt;&lt;br&gt;&lt;br&gt;&lt;br&gt;&lt;br&gt;" style="ellipse;whiteSpace=wrap;html=1;fillColor=#FFFFFF;shadow=1;strokeColor=#000000;" vertex="1" parent="1">
          <mxGeometry x="255" y="920" width="315" height="260" as="geometry" />
        </mxCell>
        <mxCell id="H_D4z-gt941NdYhwixZX-39" value="Operational" style="ellipse;whiteSpace=wrap;html=1;strokeColor=#000000;fillColor=#FFFFFF;shadow=1;" vertex="1" parent="1">
          <mxGeometry x="287.5" y="961" width="100" height="70" as="geometry" />
        </mxCell>
        <mxCell id="H_D4z-gt941NdYhwixZX-40" value="Cost Optization" style="ellipse;whiteSpace=wrap;html=1;fillColor=#FFFFFF;shadow=1;strokeColor=#000000;" vertex="1" parent="1">
          <mxGeometry x="430" y="961" width="100" height="70" as="geometry" />
        </mxCell>
        <mxCell id="H_D4z-gt941NdYhwixZX-41" value="(AWS) Security" style="ellipse;whiteSpace=wrap;html=1;fillColor=#FFFFFF;strokeColor=#000000;shadow=1;" vertex="1" parent="1">
          <mxGeometry x="270" y="1040" width="100" height="70" as="geometry" />
        </mxCell>
        <mxCell id="H_D4z-gt941NdYhwixZX-42" value="Reliability" style="ellipse;whiteSpace=wrap;html=1;strokeColor=#000000;fillColor=#FFFFFF;shadow=1;" vertex="1" parent="1">
          <mxGeometry x="445" y="1040" width="100" height="70" as="geometry" />
        </mxCell>
        <mxCell id="H_D4z-gt941NdYhwixZX-43" value="Performance&amp;nbsp;" style="ellipse;whiteSpace=wrap;html=1;strokeColor=#000000;fillColor=#FFFFFF;shadow=1;" vertex="1" parent="1">
          <mxGeometry x="365" y="1100" width="100" height="70" as="geometry" />
        </mxCell>
        <mxCell id="H_D4z-gt941NdYhwixZX-44" value="V2 DevOPs&lt;br&gt;Framework&amp;nbsp;" style="ellipse;whiteSpace=wrap;html=1;fillColor=#FFFFFF;shadow=1;strokeColor=#000000;" vertex="1" parent="1">
          <mxGeometry x="625" y="980" width="100" height="70" as="geometry" />
        </mxCell>
        <mxCell id="H_D4z-gt941NdYhwixZX-45" value="CI and Release Management&amp;nbsp;" style="ellipse;whiteSpace=wrap;html=1;fillColor=#FFFFFF;shadow=1;strokeColor=#000000;" vertex="1" parent="1">
          <mxGeometry x="570" y="1080" width="100" height="70" as="geometry" />
        </mxCell>
        <mxCell id="H_D4z-gt941NdYhwixZX-46" value="Automated&amp;nbsp;&lt;br&gt;Deployment&amp;nbsp;" style="ellipse;whiteSpace=wrap;html=1;fillColor=#FFFFFF;shadow=1;strokeColor=#000000;" vertex="1" parent="1">
          <mxGeometry x="695" y="1100" width="100" height="70" as="geometry" />
        </mxCell>
        <mxCell id="H_D4z-gt941NdYhwixZX-47" value="Automated&lt;br&gt;Provisioning" style="ellipse;whiteSpace=wrap;html=1;fillColor=#FFFFFF;shadow=1;strokeColor=#000000;" vertex="1" parent="1">
          <mxGeometry x="700" y="1220" width="100" height="70" as="geometry" />
        </mxCell>
        <mxCell id="H_D4z-gt941NdYhwixZX-48" value="" style="curved=1;endArrow=classic;html=1;rounded=0;entryX=0.019;entryY=0.377;entryDx=0;entryDy=0;entryPerimeter=0;" edge="1" parent="1" target="H_D4z-gt941NdYhwixZX-3">
          <mxGeometry width="50" height="50" relative="1" as="geometry">
            <mxPoint x="445" y="100" as="sourcePoint" />
            <mxPoint x="495" y="50" as="targetPoint" />
            <Array as="points">
              <mxPoint x="470" y="100" />
              <mxPoint x="460" y="60" />
            </Array>
          </mxGeometry>
        </mxCell>
        <mxCell id="H_D4z-gt941NdYhwixZX-49" value="" style="curved=1;endArrow=classic;html=1;rounded=0;entryX=0;entryY=0.5;entryDx=0;entryDy=0;" edge="1" parent="1" target="H_D4z-gt941NdYhwixZX-5">
          <mxGeometry width="50" height="50" relative="1" as="geometry">
            <mxPoint x="445" y="100" as="sourcePoint" />
            <mxPoint x="470" y="150" as="targetPoint" />
            <Array as="points">
              <mxPoint x="460" y="100" />
              <mxPoint x="450" y="170" />
            </Array>
          </mxGeometry>
        </mxCell>
        <mxCell id="H_D4z-gt941NdYhwixZX-50" value="" style="curved=1;endArrow=classic;html=1;rounded=0;entryX=0.007;entryY=0.417;entryDx=0;entryDy=0;entryPerimeter=0;exitX=0.461;exitY=-0.005;exitDx=0;exitDy=0;exitPerimeter=0;" edge="1" parent="1" source="H_D4z-gt941NdYhwixZX-6" target="H_D4z-gt941NdYhwixZX-2">
          <mxGeometry width="50" height="50" relative="1" as="geometry">
            <mxPoint x="220" y="210" as="sourcePoint" />
            <mxPoint x="270" y="160" as="targetPoint" />
            <Array as="points">
              <mxPoint x="230" y="150" />
              <mxPoint x="230" y="80" />
            </Array>
          </mxGeometry>
        </mxCell>
        <mxCell id="H_D4z-gt941NdYhwixZX-51" value="" style="curved=1;endArrow=classic;html=1;rounded=0;entryX=0;entryY=0.581;entryDx=0;entryDy=0;entryPerimeter=0;exitX=0.973;exitY=0.325;exitDx=0;exitDy=0;exitPerimeter=0;" edge="1" parent="1" source="H_D4z-gt941NdYhwixZX-6" target="H_D4z-gt941NdYhwixZX-7">
          <mxGeometry width="50" height="50" relative="1" as="geometry">
            <mxPoint x="285" y="220" as="sourcePoint" />
            <mxPoint x="335" y="175" as="targetPoint" />
            <Array as="points">
              <mxPoint x="360" y="170" />
              <mxPoint x="470" y="210" />
            </Array>
          </mxGeometry>
        </mxCell>
        <mxCell id="H_D4z-gt941NdYhwixZX-52" value="" style="curved=1;endArrow=classic;html=1;rounded=0;exitX=0.991;exitY=0.458;exitDx=0;exitDy=0;exitPerimeter=0;" edge="1" parent="1" source="H_D4z-gt941NdYhwixZX-6" target="H_D4z-gt941NdYhwixZX-8">
          <mxGeometry width="50" height="50" relative="1" as="geometry">
            <mxPoint x="370" y="270" as="sourcePoint" />
            <mxPoint x="420" y="220" as="targetPoint" />
            <Array as="points">
              <mxPoint x="390" y="250" />
              <mxPoint x="430" y="206" />
            </Array>
          </mxGeometry>
        </mxCell>
        <mxCell id="H_D4z-gt941NdYhwixZX-53" value="" style="curved=1;endArrow=classic;html=1;rounded=0;exitX=1;exitY=0.5;exitDx=0;exitDy=0;entryX=1;entryY=0;entryDx=0;entryDy=0;" edge="1" parent="1" source="H_D4z-gt941NdYhwixZX-7" target="H_D4z-gt941NdYhwixZX-9">
          <mxGeometry width="50" height="50" relative="1" as="geometry">
            <mxPoint x="697.5" y="200" as="sourcePoint" />
            <mxPoint x="720" y="370" as="targetPoint" />
            <Array as="points">
              <mxPoint x="730" y="190" />
              <mxPoint x="780" y="230" />
            </Array>
          </mxGeometry>
        </mxCell>
        <mxCell id="H_D4z-gt941NdYhwixZX-54" value="" style="curved=1;endArrow=classic;html=1;rounded=0;exitX=0.995;exitY=0.44;exitDx=0;exitDy=0;entryX=0.653;entryY=0.019;entryDx=0;entryDy=0;entryPerimeter=0;exitPerimeter=0;" edge="1" parent="1" source="H_D4z-gt941NdYhwixZX-8" target="H_D4z-gt941NdYhwixZX-9">
          <mxGeometry width="50" height="50" relative="1" as="geometry">
            <mxPoint x="700" y="290" as="sourcePoint" />
            <mxPoint x="750" y="370" as="targetPoint" />
            <Array as="points">
              <mxPoint x="728" y="290" />
              <mxPoint x="750" y="310" />
            </Array>
          </mxGeometry>
        </mxCell>
        <mxCell id="H_D4z-gt941NdYhwixZX-55" value="" style="curved=1;endArrow=classic;html=1;rounded=0;exitX=0.02;exitY=0.621;exitDx=0;exitDy=0;exitPerimeter=0;" edge="1" parent="1" source="H_D4z-gt941NdYhwixZX-9">
          <mxGeometry width="50" height="50" relative="1" as="geometry">
            <mxPoint x="460" y="400" as="sourcePoint" />
            <mxPoint x="360" y="462" as="targetPoint" />
            <Array as="points">
              <mxPoint x="520" y="462" />
              <mxPoint x="460" y="470" />
            </Array>
          </mxGeometry>
        </mxCell>
        <mxCell id="H_D4z-gt941NdYhwixZX-56" value="" style="curved=1;endArrow=classic;html=1;rounded=0;exitX=1;exitY=0.5;exitDx=0;exitDy=0;entryX=0.552;entryY=1.005;entryDx=0;entryDy=0;entryPerimeter=0;" edge="1" parent="1" source="H_D4z-gt941NdYhwixZX-15" target="H_D4z-gt941NdYhwixZX-13">
          <mxGeometry width="50" height="50" relative="1" as="geometry">
            <mxPoint x="460" y="400" as="sourcePoint" />
            <mxPoint x="510" y="350" as="targetPoint" />
            <Array as="points">
              <mxPoint x="510" y="445" />
            </Array>
          </mxGeometry>
        </mxCell>
        <mxCell id="H_D4z-gt941NdYhwixZX-57" value="" style="endArrow=classic;html=1;rounded=0;exitX=0.001;exitY=0.443;exitDx=0;exitDy=0;exitPerimeter=0;entryX=1.001;entryY=0.446;entryDx=0;entryDy=0;entryPerimeter=0;" edge="1" parent="1" source="H_D4z-gt941NdYhwixZX-12" target="H_D4z-gt941NdYhwixZX-11">
          <mxGeometry width="50" height="50" relative="1" as="geometry">
            <mxPoint x="330" y="280" as="sourcePoint" />
            <mxPoint x="380" y="230" as="targetPoint" />
          </mxGeometry>
        </mxCell>
        <mxCell id="H_D4z-gt941NdYhwixZX-58" value="" style="endArrow=classic;html=1;rounded=0;entryX=0.476;entryY=0.01;entryDx=0;entryDy=0;entryPerimeter=0;" edge="1" parent="1" target="H_D4z-gt941NdYhwixZX-34">
          <mxGeometry width="50" height="50" relative="1" as="geometry">
            <mxPoint x="227" y="820" as="sourcePoint" />
            <mxPoint x="270" y="820" as="targetPoint" />
            <Array as="points">
              <mxPoint x="227" y="830" />
            </Array>
          </mxGeometry>
        </mxCell>
        <mxCell id="H_D4z-gt941NdYhwixZX-59" value="" style="curved=1;endArrow=classic;html=1;rounded=0;entryX=0;entryY=0.5;entryDx=0;entryDy=0;" edge="1" parent="1" target="H_D4z-gt941NdYhwixZX-6">
          <mxGeometry width="50" height="50" relative="1" as="geometry">
            <mxPoint x="210" y="310" as="sourcePoint" />
            <mxPoint x="210" y="260" as="targetPoint" />
            <Array as="points">
              <mxPoint x="210" y="310" />
              <mxPoint x="130" y="280" />
            </Array>
          </mxGeometry>
        </mxCell>
        <mxCell id="H_D4z-gt941NdYhwixZX-60" value="" style="curved=1;endArrow=classic;html=1;rounded=0;exitX=1;exitY=0.5;exitDx=0;exitDy=0;entryX=0.676;entryY=0.978;entryDx=0;entryDy=0;entryPerimeter=0;" edge="1" parent="1" source="H_D4z-gt941NdYhwixZX-10" target="H_D4z-gt941NdYhwixZX-11">
          <mxGeometry width="50" height="50" relative="1" as="geometry">
            <mxPoint x="470" y="390" as="sourcePoint" />
            <mxPoint x="520" y="340" as="targetPoint" />
            <Array as="points">
              <mxPoint x="310" y="370" />
              <mxPoint x="350" y="350" />
            </Array>
          </mxGeometry>
        </mxCell>
        <mxCell id="H_D4z-gt941NdYhwixZX-61" value="" style="curved=1;endArrow=classic;html=1;rounded=0;entryX=1;entryY=0.5;entryDx=0;entryDy=0;exitX=0.631;exitY=0.022;exitDx=0;exitDy=0;exitPerimeter=0;" edge="1" parent="1" source="H_D4z-gt941NdYhwixZX-13" target="H_D4z-gt941NdYhwixZX-12">
          <mxGeometry width="50" height="50" relative="1" as="geometry">
            <mxPoint x="550" y="320" as="sourcePoint" />
            <mxPoint x="520" y="270" as="targetPoint" />
            <Array as="points">
              <mxPoint x="570" y="270" />
            </Array>
          </mxGeometry>
        </mxCell>
        <mxCell id="H_D4z-gt941NdYhwixZX-62" value="" style="curved=1;endArrow=classic;html=1;rounded=0;entryX=0;entryY=0.5;entryDx=0;entryDy=0;exitX=0.333;exitY=0.036;exitDx=0;exitDy=0;exitPerimeter=0;" edge="1" parent="1" source="H_D4z-gt941NdYhwixZX-15" target="H_D4z-gt941NdYhwixZX-14">
          <mxGeometry width="50" height="50" relative="1" as="geometry">
            <mxPoint x="300" y="460" as="sourcePoint" />
            <mxPoint x="350" y="410" as="targetPoint" />
            <Array as="points">
              <mxPoint x="290" y="375" />
              <mxPoint x="310" y="380" />
            </Array>
          </mxGeometry>
        </mxCell>
        <mxCell id="H_D4z-gt941NdYhwixZX-63" value="" style="curved=1;endArrow=classic;html=1;rounded=0;exitX=0.5;exitY=1;exitDx=0;exitDy=0;entryX=0.016;entryY=0.66;entryDx=0;entryDy=0;entryPerimeter=0;" edge="1" parent="1" source="H_D4z-gt941NdYhwixZX-10" target="H_D4z-gt941NdYhwixZX-15">
          <mxGeometry width="50" height="50" relative="1" as="geometry">
            <mxPoint x="370" y="450" as="sourcePoint" />
            <mxPoint x="420" y="400" as="targetPoint" />
            <Array as="points">
              <mxPoint x="190" y="470" />
              <mxPoint x="230" y="460" />
              <mxPoint x="250" y="460" />
            </Array>
          </mxGeometry>
        </mxCell>
        <mxCell id="H_D4z-gt941NdYhwixZX-64" value="" style="curved=1;endArrow=classic;html=1;rounded=0;exitX=1;exitY=0.5;exitDx=0;exitDy=0;entryX=0.205;entryY=0.111;entryDx=0;entryDy=0;entryPerimeter=0;" edge="1" parent="1" source="H_D4z-gt941NdYhwixZX-16" target="H_D4z-gt941NdYhwixZX-20">
          <mxGeometry width="50" height="50" relative="1" as="geometry">
            <mxPoint x="130" y="500" as="sourcePoint" />
            <mxPoint x="180" y="450" as="targetPoint" />
            <Array as="points">
              <mxPoint x="190" y="415" />
              <mxPoint x="178" y="450" />
            </Array>
          </mxGeometry>
        </mxCell>
        <mxCell id="H_D4z-gt941NdYhwixZX-65" value="" style="curved=1;endArrow=classic;html=1;rounded=0;entryX=0.098;entryY=0.194;entryDx=0;entryDy=0;entryPerimeter=0;exitX=0.5;exitY=0;exitDx=0;exitDy=0;" edge="1" parent="1" source="H_D4z-gt941NdYhwixZX-16" target="H_D4z-gt941NdYhwixZX-10">
          <mxGeometry width="50" height="50" relative="1" as="geometry">
            <mxPoint x="70" y="360" as="sourcePoint" />
            <mxPoint x="120" y="310" as="targetPoint" />
            <Array as="points">
              <mxPoint x="80" y="345" />
              <mxPoint x="70" y="310" />
            </Array>
          </mxGeometry>
        </mxCell>
        <mxCell id="H_D4z-gt941NdYhwixZX-66" value="" style="curved=1;endArrow=classic;html=1;rounded=0;exitX=0.5;exitY=1;exitDx=0;exitDy=0;" edge="1" parent="1" source="H_D4z-gt941NdYhwixZX-20" target="H_D4z-gt941NdYhwixZX-32">
          <mxGeometry width="50" height="50" relative="1" as="geometry">
            <mxPoint x="320" y="790" as="sourcePoint" />
            <mxPoint x="320" y="740" as="targetPoint" />
            <Array as="points">
              <mxPoint x="230" y="690" />
              <mxPoint x="220" y="729" />
            </Array>
          </mxGeometry>
        </mxCell>
        <mxCell id="H_D4z-gt941NdYhwixZX-67" value="" style="curved=1;endArrow=classic;html=1;rounded=0;entryX=0.115;entryY=0.188;entryDx=0;entryDy=0;entryPerimeter=0;exitX=0.711;exitY=0.956;exitDx=0;exitDy=0;exitPerimeter=0;" edge="1" parent="1" source="H_D4z-gt941NdYhwixZX-20" target="H_D4z-gt941NdYhwixZX-44">
          <mxGeometry width="50" height="50" relative="1" as="geometry">
            <mxPoint x="360" y="790" as="sourcePoint" />
            <mxPoint x="410" y="740" as="targetPoint" />
            <Array as="points">
              <mxPoint x="220" y="680" />
              <mxPoint x="470" y="670" />
              <mxPoint x="470" y="860" />
            </Array>
          </mxGeometry>
        </mxCell>
        <mxCell id="H_D4z-gt941NdYhwixZX-68" value="" style="curved=1;endArrow=classic;html=1;rounded=0;exitX=0.718;exitY=0.95;exitDx=0;exitDy=0;exitPerimeter=0;" edge="1" parent="1" source="H_D4z-gt941NdYhwixZX-32" target="H_D4z-gt941NdYhwixZX-38">
          <mxGeometry width="50" height="50" relative="1" as="geometry">
            <mxPoint x="330" y="930" as="sourcePoint" />
            <mxPoint x="380" y="880" as="targetPoint" />
            <Array as="points">
              <mxPoint x="413" y="830" />
              <mxPoint x="450" y="890" />
            </Array>
          </mxGeometry>
        </mxCell>
        <mxCell id="H_D4z-gt941NdYhwixZX-69" value="" style="curved=1;endArrow=classic;html=1;rounded=0;exitX=0.99;exitY=0.425;exitDx=0;exitDy=0;exitPerimeter=0;entryX=0.435;entryY=0;entryDx=0;entryDy=0;entryPerimeter=0;" edge="1" parent="1" source="H_D4z-gt941NdYhwixZX-31" target="H_D4z-gt941NdYhwixZX-33">
          <mxGeometry width="50" height="50" relative="1" as="geometry">
            <mxPoint x="350" y="810" as="sourcePoint" />
            <mxPoint x="400" y="760" as="targetPoint" />
            <Array as="points">
              <mxPoint x="330" y="774" />
            </Array>
          </mxGeometry>
        </mxCell>
        <mxCell id="H_D4z-gt941NdYhwixZX-70" value="" style="curved=1;endArrow=classic;html=1;rounded=0;exitX=0.042;exitY=0.722;exitDx=0;exitDy=0;exitPerimeter=0;entryX=0.5;entryY=0;entryDx=0;entryDy=0;" edge="1" parent="1" source="H_D4z-gt941NdYhwixZX-31" target="H_D4z-gt941NdYhwixZX-35">
          <mxGeometry width="50" height="50" relative="1" as="geometry">
            <mxPoint x="150" y="850" as="sourcePoint" />
            <mxPoint x="200" y="800" as="targetPoint" />
            <Array as="points">
              <mxPoint x="160" y="830" />
              <mxPoint x="80" y="830" />
            </Array>
          </mxGeometry>
        </mxCell>
        <mxCell id="H_D4z-gt941NdYhwixZX-71" value="" style="curved=1;endArrow=classic;html=1;rounded=0;exitX=0.994;exitY=0.608;exitDx=0;exitDy=0;exitPerimeter=0;" edge="1" parent="1" source="H_D4z-gt941NdYhwixZX-35">
          <mxGeometry width="50" height="50" relative="1" as="geometry">
            <mxPoint x="260" y="1070" as="sourcePoint" />
            <mxPoint x="196" y="970" as="targetPoint" />
            <Array as="points">
              <mxPoint x="196" y="920" />
            </Array>
          </mxGeometry>
        </mxCell>
        <mxCell id="H_D4z-gt941NdYhwixZX-72" value="" style="curved=1;endArrow=classic;html=1;rounded=0;exitX=-0.009;exitY=0.575;exitDx=0;exitDy=0;exitPerimeter=0;entryX=0.24;entryY=0.062;entryDx=0;entryDy=0;entryPerimeter=0;" edge="1" parent="1" source="H_D4z-gt941NdYhwixZX-35" target="H_D4z-gt941NdYhwixZX-36">
          <mxGeometry width="50" height="50" relative="1" as="geometry">
            <mxPoint x="130" y="990" as="sourcePoint" />
            <mxPoint x="40" y="960" as="targetPoint" />
            <Array as="points">
              <mxPoint x="10" y="920" />
              <mxPoint x="10" y="950" />
            </Array>
          </mxGeometry>
        </mxCell>
        <mxCell id="H_D4z-gt941NdYhwixZX-73" value="" style="curved=1;endArrow=classic;html=1;rounded=0;exitX=0.232;exitY=0.92;exitDx=0;exitDy=0;entryX=0.043;entryY=0.7;entryDx=0;entryDy=0;entryPerimeter=0;exitPerimeter=0;" edge="1" parent="1" source="H_D4z-gt941NdYhwixZX-29" target="H_D4z-gt941NdYhwixZX-30">
          <mxGeometry width="50" height="50" relative="1" as="geometry">
            <mxPoint x="730" y="1000" as="sourcePoint" />
            <mxPoint x="780" y="950" as="targetPoint" />
            <Array as="points">
              <mxPoint x="590" y="880" />
              <mxPoint x="620" y="926" />
            </Array>
          </mxGeometry>
        </mxCell>
        <mxCell id="H_D4z-gt941NdYhwixZX-74" value="" style="curved=1;endArrow=classic;html=1;rounded=0;" edge="1" parent="1" source="H_D4z-gt941NdYhwixZX-23">
          <mxGeometry width="50" height="50" relative="1" as="geometry">
            <mxPoint x="570" y="710" as="sourcePoint" />
            <mxPoint x="700" y="820" as="targetPoint" />
            <Array as="points">
              <mxPoint x="810" y="710" />
              <mxPoint x="800" y="820" />
            </Array>
          </mxGeometry>
        </mxCell>
        <mxCell id="H_D4z-gt941NdYhwixZX-75" value="" style="curved=1;endArrow=classic;html=1;rounded=0;exitX=0.323;exitY=0.981;exitDx=0;exitDy=0;entryX=0.414;entryY=0.004;entryDx=0;entryDy=0;entryPerimeter=0;exitPerimeter=0;" edge="1" parent="1" source="H_D4z-gt941NdYhwixZX-20" target="H_D4z-gt941NdYhwixZX-31">
          <mxGeometry width="50" height="50" relative="1" as="geometry">
            <mxPoint x="350" y="770" as="sourcePoint" />
            <mxPoint x="400" y="720" as="targetPoint" />
            <Array as="points">
              <mxPoint x="215" y="670" />
              <mxPoint x="190" y="690" />
            </Array>
          </mxGeometry>
        </mxCell>
        <mxCell id="H_D4z-gt941NdYhwixZX-76" value="" style="curved=1;endArrow=classic;html=1;rounded=0;entryX=0.55;entryY=0;entryDx=0;entryDy=0;entryPerimeter=0;exitX=1;exitY=0.5;exitDx=0;exitDy=0;" edge="1" parent="1" source="H_D4z-gt941NdYhwixZX-44" target="H_D4z-gt941NdYhwixZX-46">
          <mxGeometry width="50" height="50" relative="1" as="geometry">
            <mxPoint x="630" y="1020" as="sourcePoint" />
            <mxPoint x="680" y="970" as="targetPoint" />
            <Array as="points">
              <mxPoint x="770" y="1030" />
            </Array>
          </mxGeometry>
        </mxCell>
        <mxCell id="H_D4z-gt941NdYhwixZX-77" value="" style="curved=1;endArrow=classic;html=1;rounded=0;entryX=0.4;entryY=0;entryDx=0;entryDy=0;exitX=0;exitY=0.5;exitDx=0;exitDy=0;entryPerimeter=0;" edge="1" parent="1" source="H_D4z-gt941NdYhwixZX-44" target="H_D4z-gt941NdYhwixZX-45">
          <mxGeometry width="50" height="50" relative="1" as="geometry">
            <mxPoint x="710" y="1060" as="sourcePoint" />
            <mxPoint x="670" y="1020" as="targetPoint" />
            <Array as="points">
              <mxPoint x="590" y="1015" />
            </Array>
          </mxGeometry>
        </mxCell>
        <mxCell id="H_D4z-gt941NdYhwixZX-78" value="" style="curved=1;endArrow=classic;html=1;rounded=0;entryX=0.912;entryY=0.22;entryDx=0;entryDy=0;entryPerimeter=0;exitX=1;exitY=0.5;exitDx=0;exitDy=0;" edge="1" parent="1" source="H_D4z-gt941NdYhwixZX-46" target="H_D4z-gt941NdYhwixZX-47">
          <mxGeometry width="50" height="50" relative="1" as="geometry">
            <mxPoint x="790" y="1135" as="sourcePoint" />
            <mxPoint x="740" y="1170" as="targetPoint" />
            <Array as="points">
              <mxPoint x="830" y="1140" />
              <mxPoint x="820" y="1210" />
            </Array>
          </mxGeometry>
        </mxCell>
        <mxCell id="H_D4z-gt941NdYhwixZX-79" value="" style="curved=1;endArrow=classic;html=1;rounded=0;exitX=0.901;exitY=0.811;exitDx=0;exitDy=0;exitPerimeter=0;entryX=0.183;entryY=0.886;entryDx=0;entryDy=0;entryPerimeter=0;" edge="1" parent="1" source="H_D4z-gt941NdYhwixZX-14" target="H_D4z-gt941NdYhwixZX-13">
          <mxGeometry width="50" height="50" relative="1" as="geometry">
            <mxPoint x="550" y="460" as="sourcePoint" />
            <mxPoint x="600" y="410" as="targetPoint" />
            <Array as="points">
              <mxPoint x="470" y="420" />
              <mxPoint x="490" y="410" />
            </Array>
          </mxGeometry>
        </mxCell>
        <mxCell id="H_D4z-gt941NdYhwixZX-80" value="" style="curved=1;endArrow=classic;html=1;rounded=0;exitX=0.983;exitY=0.622;exitDx=0;exitDy=0;exitPerimeter=0;entryX=0.292;entryY=0.044;entryDx=0;entryDy=0;entryPerimeter=0;" edge="1" parent="1" source="H_D4z-gt941NdYhwixZX-20" target="H_D4z-gt941NdYhwixZX-22">
          <mxGeometry width="50" height="50" relative="1" as="geometry">
            <mxPoint x="470" y="530" as="sourcePoint" />
            <mxPoint x="520" y="480" as="targetPoint" />
            <Array as="points">
              <mxPoint x="315" y="546" />
            </Array>
          </mxGeometry>
        </mxCell>
        <mxCell id="H_D4z-gt941NdYhwixZX-81" value="" style="curved=1;endArrow=classic;html=1;rounded=0;exitX=0.949;exitY=0.267;exitDx=0;exitDy=0;exitPerimeter=0;entryX=0.032;entryY=0.328;entryDx=0;entryDy=0;entryPerimeter=0;" edge="1" parent="1" source="H_D4z-gt941NdYhwixZX-20" target="H_D4z-gt941NdYhwixZX-21">
          <mxGeometry width="50" height="50" relative="1" as="geometry">
            <mxPoint x="330" y="560" as="sourcePoint" />
            <mxPoint x="380" y="510" as="targetPoint" />
            <Array as="points">
              <mxPoint x="300" y="510" />
              <mxPoint x="330" y="510" />
            </Array>
          </mxGeometry>
        </mxCell>
        <mxCell id="H_D4z-gt941NdYhwixZX-82" value="" style="curved=1;endArrow=classic;html=1;rounded=0;exitX=1.005;exitY=0.462;exitDx=0;exitDy=0;exitPerimeter=0;entryX=1;entryY=1;entryDx=0;entryDy=0;" edge="1" parent="1" source="H_D4z-gt941NdYhwixZX-22" target="H_D4z-gt941NdYhwixZX-21">
          <mxGeometry width="50" height="50" relative="1" as="geometry">
            <mxPoint x="360" y="630" as="sourcePoint" />
            <mxPoint x="410" y="580" as="targetPoint" />
            <Array as="points">
              <mxPoint x="420" y="612" />
              <mxPoint x="440" y="600" />
            </Array>
          </mxGeometry>
        </mxCell>
        <mxCell id="H_D4z-gt941NdYhwixZX-83" value="" style="curved=1;endArrow=classic;html=1;rounded=0;entryX=0.18;entryY=0.123;entryDx=0;entryDy=0;entryPerimeter=0;exitX=0.917;exitY=0.222;exitDx=0;exitDy=0;exitPerimeter=0;" edge="1" parent="1" source="H_D4z-gt941NdYhwixZX-21" target="H_D4z-gt941NdYhwixZX-23">
          <mxGeometry width="50" height="50" relative="1" as="geometry">
            <mxPoint x="380" y="540" as="sourcePoint" />
            <mxPoint x="430" y="490" as="targetPoint" />
            <Array as="points">
              <mxPoint x="470" y="500" />
              <mxPoint x="510" y="500" />
            </Array>
          </mxGeometry>
        </mxCell>
        <mxCell id="H_D4z-gt941NdYhwixZX-84" value="" style="curved=1;endArrow=classic;html=1;rounded=0;entryX=0.94;entryY=0.73;entryDx=0;entryDy=0;entryPerimeter=0;" edge="1" parent="1" source="H_D4z-gt941NdYhwixZX-4" target="H_D4z-gt941NdYhwixZX-3">
          <mxGeometry width="50" height="50" relative="1" as="geometry">
            <mxPoint x="580" y="140" as="sourcePoint" />
            <mxPoint x="630" y="90" as="targetPoint" />
            <Array as="points">
              <mxPoint x="620" y="100" />
              <mxPoint x="600" y="90" />
            </Array>
          </mxGeometry>
        </mxCell>
        <mxCell id="H_D4z-gt941NdYhwixZX-85" value="" style="curved=1;endArrow=classic;html=1;rounded=0;exitX=0.103;exitY=0.801;exitDx=0;exitDy=0;exitPerimeter=0;entryX=0.261;entryY=0.067;entryDx=0;entryDy=0;entryPerimeter=0;" edge="1" parent="1" source="H_D4z-gt941NdYhwixZX-16" target="H_D4z-gt941NdYhwixZX-17">
          <mxGeometry width="50" height="50" relative="1" as="geometry">
            <mxPoint x="110" y="540" as="sourcePoint" />
            <mxPoint x="160" y="490" as="targetPoint" />
            <Array as="points">
              <mxPoint x="32" y="470" />
            </Array>
          </mxGeometry>
        </mxCell>
        <mxCell id="H_D4z-gt941NdYhwixZX-86" value="" style="curved=1;endArrow=classic;html=1;rounded=0;entryX=0.747;entryY=0.075;entryDx=0;entryDy=0;entryPerimeter=0;exitX=0.86;exitY=0.842;exitDx=0;exitDy=0;exitPerimeter=0;" edge="1" parent="1" source="H_D4z-gt941NdYhwixZX-17" target="H_D4z-gt941NdYhwixZX-18">
          <mxGeometry width="50" height="50" relative="1" as="geometry">
            <mxPoint x="90" y="680" as="sourcePoint" />
            <mxPoint x="140" y="630" as="targetPoint" />
            <Array as="points">
              <mxPoint x="110" y="580" />
              <mxPoint x="130" y="590" />
            </Array>
          </mxGeometry>
        </mxCell>
        <mxCell id="H_D4z-gt941NdYhwixZX-87" value="" style="curved=1;endArrow=classic;html=1;rounded=0;exitX=0.226;exitY=0.922;exitDx=0;exitDy=0;exitPerimeter=0;" edge="1" parent="1" source="H_D4z-gt941NdYhwixZX-18" target="H_D4z-gt941NdYhwixZX-19">
          <mxGeometry width="50" height="50" relative="1" as="geometry">
            <mxPoint x="100" y="730" as="sourcePoint" />
            <mxPoint x="150" y="680" as="targetPoint" />
            <Array as="points">
              <mxPoint x="20" y="710" />
              <mxPoint x="70" y="700" />
            </Array>
          </mxGeometry>
        </mxCell>
      </root>
    </mxGraphModel>
  </diagram>
</mxfile>
